<svg width="292" height="56" viewBox="0 0 292 56" fill="none" xmlns="http://www.w3.org/2000/svg">
<mask id="mask0_2321_23716" style="mask-type:luminance" maskUnits="userSpaceOnUse" x="0" y="0" width="291" height="56">
<path d="M290.119 0H0V56H290.119V0Z" fill="white"/>
</mask>
<g mask="url(#mask0_2321_23716)">
<path fill-rule="evenodd" clip-rule="evenodd" d="M49.9516 16.5585V39.4408H49.9561C49.9561 41.2703 48.9745 42.9598 47.3899 43.8743L27.542 55.3132C25.9574 56.2279 23.9988 56.2279 22.4141 55.3132L2.56629 43.8743C0.976966 42.9598 0 41.2703 0 39.4408V16.5585C0 14.729 0.981641 13.0396 2.56629 12.1249L8.0166 8.98296V32.4638C8.0166 35.1145 9.447 37.588 11.7468 38.9136L21.4604 44.5138C22.615 45.1766 23.8631 45.5081 25.1906 45.5081C26.5182 45.5081 27.841 45.1534 29.0236 44.4486L38.3073 38.8903C40.5417 37.5556 41.9299 35.11 41.9299 32.5105V8.98086L47.3852 12.1249C48.9745 13.0396 49.9516 14.729 49.9516 16.5585ZM34.9181 4.93984V32.5105C34.9181 32.6645 34.834 32.809 34.7033 32.8885L25.415 38.4468C25.2795 38.526 25.1065 38.5308 24.9662 38.4468L15.2527 32.8465C15.1171 32.7718 15.0283 32.6225 15.0283 32.4638V4.94099L22.4095 0.686048C23.9941 -0.228683 25.9527 -0.228683 27.5373 0.686048L34.9181 4.93984ZM15.0283 4.94099L8.0166 8.98296V8.97943L15.0283 4.9378V4.94099Z" fill="#1ED760"/>
<path d="M80.3838 30.8757V15.1665H86.7834V42.277H80.5802V37.4562H80.2997C79.6875 38.973 78.6824 40.2142 77.2846 41.1802C75.8871 42.1465 74.1716 42.6273 72.1336 42.6273C70.3525 42.6273 68.782 42.2305 67.4215 41.437C66.0613 40.6437 64.9956 39.4862 64.2289 37.9602C63.4624 36.4387 63.079 34.5907 63.079 32.4252V15.1665H69.4783V31.4404C69.4783 33.1577 69.9506 34.5252 70.8949 35.5332C71.8389 36.5459 73.0731 37.0499 74.6063 37.0499C75.5506 37.0499 76.4621 36.8215 77.3455 36.3595C78.2289 35.8972 78.9583 35.2159 79.5285 34.3012C80.0989 33.3912 80.3838 32.2432 80.3838 30.8664V30.8757Z" fill="white"/>
<path d="M98.268 26.3933V42.2796H91.8687V15.1691H97.9876V19.7755H98.3056C98.9318 18.2587 99.9277 17.0499 101.302 16.1585C102.676 15.2625 104.373 14.8145 106.402 14.8145C108.276 14.8145 109.912 15.2158 111.31 16.0139C112.707 16.8119 113.792 17.974 114.563 19.4908C115.335 21.0075 115.713 22.851 115.704 25.0165V42.2796H109.305V26.0059C109.305 24.1951 108.837 22.7763 107.898 21.7496C106.963 20.7275 105.668 20.2142 104.018 20.2142C102.896 20.2142 101.905 20.4568 101.04 20.9469C100.175 21.4369 99.4975 22.137 99.0067 23.0564C98.5159 23.9757 98.2728 25.0865 98.2728 26.3933H98.268Z" fill="white"/>
<path d="M134.283 15.1669V20.1092H118.67V15.1669H134.283ZM122.527 8.67041H128.926V34.1242C128.926 34.9829 129.057 35.6409 129.324 36.0937C129.59 36.5464 129.941 36.8544 130.375 37.0224C130.81 37.1857 131.296 37.2697 131.824 37.2697C132.226 37.2697 132.596 37.2417 132.927 37.1812C133.259 37.1204 133.521 37.0692 133.699 37.0224L134.779 42.0162C134.437 42.1327 133.951 42.2635 133.32 42.4035C132.689 42.5435 131.923 42.6275 131.011 42.6507C129.408 42.6975 127.963 42.4547 126.678 41.9182C125.392 41.3815 124.378 40.5507 123.63 39.4212C122.882 38.292 122.513 36.8777 122.527 35.1837V8.67041Z" fill="white"/>
<path d="M145.965 42.8252C144.245 42.8252 142.697 42.5172 141.323 41.8964C139.949 41.2804 138.864 40.3656 138.07 39.1521C137.275 37.9386 136.877 36.4454 136.877 34.6671C136.877 33.1363 137.158 31.8716 137.728 30.8728C138.294 29.874 139.065 29.0716 140.042 28.474C141.019 27.872 142.127 27.4193 143.356 27.1066C144.586 26.794 145.862 26.5699 147.185 26.4252C148.774 26.2619 150.064 26.1125 151.055 25.9772C152.046 25.8419 152.766 25.6319 153.219 25.3425C153.673 25.0531 153.902 24.6051 153.902 23.9937V23.8864C153.902 22.5563 153.505 21.5296 152.719 20.7969C151.929 20.0688 150.794 19.7048 149.307 19.7048C147.741 19.7048 146.498 20.0454 145.586 20.7269C144.674 21.4082 144.057 22.2156 143.74 23.1443L137.766 22.295C138.238 20.6475 139.014 19.2661 140.098 18.1553C141.183 17.0446 142.51 16.2092 144.076 15.6491C145.642 15.0891 147.376 14.8091 149.274 14.8091C150.583 14.8091 151.883 14.9631 153.182 15.2665C154.477 15.5745 155.664 16.0738 156.735 16.7739C157.805 17.474 158.67 18.426 159.324 19.6254C159.979 20.8249 160.306 22.3276 160.306 24.1244V42.2696H154.154V38.5454H153.944C153.556 39.2969 153.009 40.0016 152.308 40.6549C151.607 41.3084 150.728 41.8309 149.671 42.2276C148.615 42.6196 147.381 42.8204 145.969 42.8204L145.965 42.8252ZM147.629 38.1301C148.914 38.1301 150.027 37.8734 150.971 37.3601C151.915 36.8466 152.64 36.1698 153.154 35.3206C153.668 34.4711 153.925 33.5518 153.925 32.5483V29.3516C153.724 29.5148 153.388 29.6688 152.911 29.8088C152.434 29.9488 151.901 30.0748 151.312 30.1776C150.723 30.2848 150.139 30.3783 149.564 30.4623C148.984 30.5463 148.484 30.6163 148.064 30.6723C147.11 30.8028 146.255 31.0128 145.502 31.3068C144.749 31.6011 144.151 32.0116 143.716 32.5343C143.281 33.0571 143.062 33.7338 143.062 34.5551C143.062 35.7314 143.492 36.6178 144.352 37.2201C145.212 37.8221 146.311 38.1209 147.638 38.1209L147.629 38.1301Z" fill="white"/>
<path d="M171.661 26.3933V42.2796H165.262V15.1691H171.381V19.7755H171.699C172.325 18.2587 173.321 17.0499 174.695 16.1585C176.069 15.2625 177.766 14.8145 179.795 14.8145C181.67 14.8145 183.305 15.2158 184.703 16.0139C186.101 16.8119 187.185 17.974 187.957 19.4908C188.728 21.0075 189.107 22.851 189.097 25.0165V42.2796H182.698V26.0059C182.698 24.1951 182.23 22.7763 181.291 21.7496C180.356 20.7275 179.061 20.2142 177.411 20.2142C176.289 20.2142 175.298 20.4568 174.433 20.9469C173.569 21.4369 172.891 22.137 172.4 23.0564C171.909 23.9757 171.666 25.0865 171.666 26.3933H171.661Z" fill="white"/>
<path d="M205.931 53.006C203.632 53.006 201.659 52.698 200.009 52.0772C198.359 51.4612 197.031 50.6352 196.031 49.5992C195.03 48.563 194.334 47.415 193.946 46.155L199.71 44.7594C199.967 45.287 200.346 45.8142 200.841 46.337C201.336 46.8597 202.005 47.2937 202.846 47.6437C203.688 47.989 204.753 48.1665 206.039 48.1665C207.853 48.1665 209.358 47.7277 210.545 46.8502C211.737 45.973 212.331 44.5354 212.331 42.5334V37.3949H212.013C211.681 38.0529 211.204 38.7296 210.573 39.4252C209.942 40.1204 209.11 40.7039 208.082 41.1707C207.049 41.6419 205.758 41.8752 204.202 41.8752C202.117 41.8752 200.229 41.3852 198.536 40.4004C196.844 39.4204 195.503 37.9456 194.507 35.9856C193.511 34.0254 193.011 31.5706 193.011 28.6163C193.011 25.6621 193.506 23.1233 194.507 21.0698C195.503 19.0163 196.849 17.4575 198.546 16.3935C200.243 15.3294 202.136 14.7974 204.22 14.7974C205.81 14.7974 207.123 15.0634 208.156 15.6001C209.189 16.1368 210.008 16.7762 210.625 17.5229C211.237 18.2696 211.704 18.9743 212.022 19.6324H212.378V15.1474H218.688V42.7014C218.688 45.021 218.132 46.939 217.024 48.4557C215.916 49.9725 214.402 51.1065 212.48 51.8628C210.559 52.614 208.381 52.992 205.941 52.992L205.931 53.006ZM205.983 36.8721C207.339 36.8721 208.493 36.5409 209.447 35.8829C210.4 35.2249 211.125 34.2774 211.62 33.0406C212.116 31.8038 212.364 30.3243 212.364 28.5931C212.364 26.8615 212.12 25.3914 211.63 24.108C211.139 22.8246 210.423 21.8305 209.475 21.1165C208.526 20.4024 207.362 20.0477 205.983 20.0477C204.604 20.0477 203.365 20.4164 202.412 21.1585C201.458 21.9005 200.738 22.9132 200.257 24.2014C199.775 25.4894 199.532 26.9502 199.532 28.5883C199.532 30.2263 199.775 31.6966 200.266 32.9378C200.757 34.1794 201.481 35.1454 202.44 35.8316C203.398 36.5176 204.581 36.8629 205.983 36.8629V36.8721Z" fill="white"/>
<path d="M230.161 6.12744V42.278H223.762V6.12744H230.161Z" fill="white"/>
<path d="M247.268 42.8071C244.548 42.8071 242.196 42.2376 240.224 41.1036C238.251 39.9696 236.732 38.3548 235.671 36.2686C234.61 34.1826 234.082 31.7183 234.082 28.8808C234.082 26.0432 234.614 23.6397 235.68 21.5303C236.746 19.4161 238.242 17.7686 240.163 16.5879C242.084 15.4072 244.342 14.8145 246.932 14.8145C248.605 14.8145 250.185 15.0805 251.676 15.6172C253.167 16.1539 254.486 16.9799 255.635 18.0954C256.786 19.2154 257.688 20.6342 258.351 22.3563C259.011 24.0784 259.342 26.1319 259.342 28.5075V30.4675H237.083V26.1599H253.205C253.191 24.9372 252.929 23.8451 252.41 22.8837C251.891 21.927 251.172 21.1709 250.246 20.6155C249.32 20.0648 248.245 19.7848 247.021 19.7848C245.712 19.7848 244.562 20.0975 243.575 20.7275C242.584 21.3576 241.818 22.179 241.266 23.1964C240.719 24.2138 240.439 25.3292 240.425 26.5426V30.3043C240.425 31.8815 240.715 33.2303 241.29 34.355C241.865 35.4798 242.673 36.3386 243.711 36.9313C244.749 37.5241 245.964 37.8228 247.352 37.8228C248.283 37.8228 249.124 37.6921 249.881 37.4261C250.634 37.1601 251.288 36.7681 251.845 36.2546C252.396 35.7366 252.817 35.0973 253.102 34.3318L259.076 35.0038C258.697 36.5813 257.982 37.9533 256.926 39.1248C255.869 40.2964 254.523 41.2016 252.887 41.8411C251.251 42.4804 249.376 42.8024 247.263 42.8024L247.268 42.8071Z" fill="white"/>
<path d="M273.333 42.754C271.202 42.754 269.29 42.208 267.607 41.1113C265.92 40.0193 264.588 38.4277 263.611 36.3462C262.634 34.2647 262.143 31.7352 262.143 28.7577C262.143 25.7802 262.638 23.1993 263.639 21.1225C264.634 19.0457 265.981 17.4729 267.677 16.4088C269.374 15.3448 271.267 14.8127 273.352 14.8127C274.942 14.8127 276.25 15.0787 277.279 15.6154C278.302 16.1521 279.116 16.7915 279.719 17.5382C280.322 18.285 280.785 18.9897 281.116 19.6477H281.383V6.12744H287.802V42.278H281.509V38.0077H281.122C280.788 38.6657 280.313 39.3657 279.691 40.0985C279.064 40.836 278.242 41.4613 277.218 41.9793C276.194 42.4973 274.904 42.754 273.347 42.754H273.333ZM275.119 37.513C276.475 37.513 277.629 37.1442 278.583 36.4115C279.537 35.6742 280.261 34.6475 280.757 33.3315C281.251 32.0152 281.5 30.4799 281.5 28.7249C281.5 26.9703 281.256 25.4488 280.766 24.1514C280.275 22.8586 279.56 21.8505 278.611 21.1318C277.662 20.4131 276.498 20.0537 275.119 20.0537C273.74 20.0537 272.501 20.4225 271.548 21.1645C270.594 21.9065 269.874 22.9286 269.393 24.2354C268.912 25.5421 268.668 27.0356 268.668 28.7204C268.668 30.4052 268.912 31.9219 269.402 33.2475C269.893 34.5727 270.618 35.6135 271.576 36.3695C272.534 37.1302 273.717 37.5082 275.119 37.5082V37.513Z" fill="white"/>
</g>
</svg>
